<svg width="50" height="50" fill="none" xmlns="http://www.w3.org/2000/svg"><path d="M24.997.52C11.194.52 0 11.757 0 25.62c0 11.088 7.162 20.494 17.1 23.816 1.25.23 1.706-.544 1.706-1.21 0-.597-.022-2.175-.034-4.268-6.953 1.515-8.422-3.366-8.422-3.366-1.134-2.9-2.775-3.672-2.775-3.672-2.272-1.556.169-1.525.169-1.525 2.51.178 3.828 2.587 3.828 2.587 2.231 3.835 5.853 2.729 7.278 2.085.225-1.622.872-2.728 1.587-3.356-5.55-.635-11.387-2.788-11.387-12.403 0-2.741.975-4.982 2.575-6.738-.26-.634-1.116-3.188.244-6.64 0 0 2.1-.676 6.875 2.571 1.994-.556 4.131-.834 6.26-.843 2.121.012 4.262.287 6.258.846 4.772-3.246 6.87-2.572 6.87-2.572 1.362 3.457.506 6.007.25 6.641 1.602 1.756 2.568 3.997 2.568 6.738 0 9.64-5.844 11.762-11.413 12.384.897.775 1.697 2.306 1.697 4.647 0 3.356-.03 6.062-.03 6.884 0 .672.45 1.453 1.718 1.206C42.844 46.107 50 36.704 50 25.62 50 11.757 38.806.52 24.997.52z" fill="#000"/></svg>