<svg width="50" height="50" fill="none" xmlns="http://www.w3.org/2000/svg"><g clip-path="url(#clip0)" fill="#000"><path d="M49.951 14.7c-.117-2.657-.547-4.483-1.162-6.066A12.201 12.201 0 0045.897 4.2a12.305 12.305 0 00-4.424-2.881C39.88.703 38.064.274 35.407.156 32.731.03 31.881 0 25.093 0c-6.789 0-7.639.03-10.305.147-2.657.117-4.483.547-6.066 1.162A12.2 12.2 0 004.288 4.2a12.31 12.31 0 00-2.882 4.425C.791 10.217.361 12.034.244 14.69.117 17.367.088 18.216.088 25.005c0 6.788.03 7.638.146 10.305.117 2.656.547 4.483 1.163 6.065a12.329 12.329 0 002.89 4.435 12.306 12.306 0 004.426 2.881c1.592.616 3.408 1.045 6.065 1.162 2.667.118 3.517.147 10.305.147 6.789 0 7.638-.03 10.305-.147 2.657-.117 4.483-.546 6.065-1.162a12.79 12.79 0 007.316-7.316c.615-1.592 1.045-3.409 1.163-6.065.117-2.667.146-3.517.146-10.305 0-6.789-.01-7.638-.127-10.305zm-4.503 20.414c-.107 2.442-.517 3.76-.86 4.64a8.294 8.294 0 01-4.746 4.747c-.88.342-2.208.752-4.64.86-2.637.117-3.428.146-10.1.146-6.67 0-7.472-.03-10.1-.147-2.441-.107-3.76-.517-4.639-.859a7.694 7.694 0 01-2.871-1.866 7.774 7.774 0 01-1.866-2.871c-.342-.88-.752-2.208-.86-4.64-.117-2.637-.146-3.428-.146-10.1 0-6.671.03-7.472.147-10.1.107-2.441.517-3.76.859-4.639a7.6 7.6 0 011.876-2.872 7.761 7.761 0 012.871-1.865c.88-.342 2.208-.752 4.64-.86 2.637-.117 3.428-.146 10.1-.146 6.68 0 7.471.03 10.099.146 2.442.108 3.76.518 4.64.86a7.687 7.687 0 012.871 1.865 7.771 7.771 0 011.866 2.872c.342.88.752 2.207.86 4.64.117 2.637.146 3.428.146 10.1 0 6.67-.03 7.452-.147 10.09z"/><path d="M25.093 12.16c-7.091 0-12.845 5.754-12.845 12.845 0 7.091 5.754 12.844 12.845 12.844 7.091 0 12.844-5.753 12.844-12.844 0-7.091-5.753-12.844-12.844-12.844zm0 21.177a8.333 8.333 0 01-8.332-8.332 8.333 8.333 0 118.332 8.332zm16.351-21.684a2.999 2.999 0 11-5.998 0 2.999 2.999 0 015.998 0z"/></g><defs><clipPath id="clip0"><path fill="#fff" d="M0 0h50v50H0z"/></clipPath></defs></svg>