<svg width="50" height="50" fill="none" xmlns="http://www.w3.org/2000/svg"><path d="M46.906 12.538c-2.853 0-5.486-.945-7.6-2.54A12.608 12.608 0 0134.28.038h-8.15v22.273l-.01 12.2c0 3.262-2.124 6.028-5.068 7a7.414 7.414 0 01-2.738.364 7.347 7.347 0 01-3.376-1.035c-2.126-1.272-3.567-3.578-3.606-6.217-.062-4.124 3.272-7.486 7.394-7.486.813 0 1.594.133 2.326.374v-8.277a16.033 16.033 0 00-2.35-.174c-4.512 0-8.73 1.876-11.746 5.254a15.29 15.29 0 00-3.857 9.224c-.277 4.486 1.365 8.751 4.548 11.898a15.638 15.638 0 0011.054 4.525c.794 0 1.58-.059 2.35-.173a15.58 15.58 0 008.704-4.352c2.937-2.904 4.56-6.758 4.578-10.86l-.042-18.22a20.595 20.595 0 004.578 2.67 20.607 20.607 0 008.06 1.625v-8.115c.003.002-.02.002-.023.002z" fill="#000"/></svg>