<svg width="293" height="318" fill="none" xmlns="http://www.w3.org/2000/svg"><rect width="293" height="318" rx="30" fill="#FFDBE1"/><path d="M276.565 235.519l-9.614 73.239c-.156 1.194-.706 2.286-1.548 3.072-.843.786-1.92 1.213-3.031 1.201h-82.406a4.326 4.326 0 01-2.835-.893 4.962 4.962 0 01-1.743-2.585c-3.989-13.074-10.998-24.822-20.359-34.12-9.361-9.299-20.761-15.839-33.113-18.996-4.913-1.336-9.177-4.641-11.937-9.249-2.76-4.608-3.811-10.18-2.942-15.595.952-5.127 3.53-9.729 7.286-13.006 3.756-3.278 8.451-5.022 13.269-4.931h34.107v-99.375a21.36 21.36 0 011.547-8.094c1.033-2.551 2.548-4.838 4.447-6.712a18.06 18.06 0 016.579-4.167 16.956 16.956 0 017.571-.902c4.611.636 8.844 3.098 11.885 6.912 3.042 3.815 4.679 8.714 4.596 13.758v78.705c0 1.318.483 2.582 1.341 3.514.859.932 2.023 1.455 3.238 1.455 1.214 0 2.378-.523 3.237-1.455.858-.932 1.341-2.196 1.341-3.514v-13.266c0-.785.172-1.557.5-2.256a4.887 4.887 0 011.39-1.763 4.395 4.395 0 011.976-.886 4.236 4.236 0 012.131.184l36.625 13.267c8.729 3.149 16.161 9.526 20.998 18.018 4.836 8.492 6.77 18.558 5.464 28.44z" fill="#FAACCA"/><path d="M231.195 4.969H29.758c-3.643 0-7.136 1.57-9.712 4.366-2.576 2.795-4.023 6.587-4.023 10.54v188.813c0 3.953 1.447 7.744 4.023 10.54 2.576 2.795 6.07 4.366 9.712 4.366h201.437c3.643 0 7.136-1.571 9.712-4.366 2.576-2.796 4.023-6.587 4.023-10.54V19.875c0-3.953-1.447-7.745-4.023-10.54-2.576-2.796-6.069-4.366-9.712-4.366zM29.758 14.906h201.437c1.215 0 2.379.524 3.238 1.456.858.931 1.34 2.195 1.34 3.513v14.906H25.18V19.875c0-1.318.482-2.582 1.34-3.513.86-.932 2.024-1.456 3.238-1.456zm201.437 198.75H29.758c-1.214 0-2.379-.523-3.237-1.455-.859-.932-1.341-2.196-1.341-3.513V44.718h210.593v163.97c0 1.317-.482 2.581-1.34 3.513-.859.932-2.023 1.455-3.238 1.455zM217.461 159c0 1.318-.482 2.582-1.341 3.513-.859.932-2.023 1.456-3.237 1.456-6.071 0-11.893 2.617-16.186 7.276-4.293 4.659-6.705 10.979-6.705 17.567 0 1.318-.482 2.582-1.341 3.514-.858.932-2.023 1.455-3.237 1.455s-2.379-.523-3.237-1.455c-.859-.932-1.341-2.196-1.341-3.514 0-9.224 3.376-18.071 9.386-24.594 6.01-6.522 14.161-10.187 22.661-10.187 1.214 0 2.378.524 3.237 1.456.859.931 1.341 2.195 1.341 3.513zm0-29.812c0 1.317-.482 2.581-1.341 3.513-.859.932-2.023 1.455-3.237 1.455-13.356 0-26.165 5.759-35.61 16.009-9.444 10.25-14.75 24.152-14.75 38.647 0 1.318-.482 2.582-1.34 3.514-.859.932-2.023 1.455-3.238 1.455-1.214 0-2.378-.523-3.237-1.455-.858-.932-1.341-2.196-1.341-3.514 0-17.131 6.271-33.561 17.432-45.674 11.161-12.114 26.299-18.919 42.084-18.919 1.214 0 2.378.523 3.237 1.455s1.341 2.196 1.341 3.514zm0-29.813c0 1.318-.482 2.582-1.341 3.513-.859.932-2.023 1.456-3.237 1.456-20.641 0-40.437 8.899-55.033 24.74-14.596 15.841-22.795 37.326-22.795 59.728 0 1.318-.483 2.582-1.341 3.514-.859.932-2.023 1.455-3.237 1.455-1.215 0-2.379-.523-3.238-1.455-.858-.932-1.341-2.196-1.341-3.514 0-25.038 9.165-49.05 25.478-66.755 16.312-17.704 38.437-27.65 61.507-27.65 1.214 0 2.378.523 3.237 1.455.859.931 1.341 2.195 1.341 3.513zm0-29.813V79.5c0 1.318-.482 2.582-1.341 3.513-.859.932-2.023 1.456-3.237 1.456s-2.379-.524-3.237-1.456c-.859-.931-1.341-2.195-1.341-3.513v-4.969H52.648v79.5h59.516c1.214 0 2.379.524 3.237 1.456.859.931 1.341 2.195 1.341 3.513s-.482 2.582-1.341 3.513c-.858.932-2.023 1.456-3.237 1.456H48.07c-1.214 0-2.378-.524-3.237-1.456-.858-.931-1.34-2.195-1.34-3.513V69.562c0-1.317.481-2.581 1.34-3.513.859-.932 2.023-1.455 3.237-1.455h164.813c1.214 0 2.378.523 3.237 1.455s1.341 2.196 1.341 3.513zm-109.875 119.25c0 1.318-.482 2.582-1.341 3.514-.859.932-2.023 1.455-3.237 1.455H48.07c-1.214 0-2.378-.523-3.237-1.455-.858-.932-1.34-2.196-1.34-3.514 0-1.317.481-2.581 1.34-3.513.859-.932 2.023-1.455 3.237-1.455h54.938c1.214 0 2.378.523 3.237 1.455s1.341 2.196 1.341 3.513z" fill="#000"/></svg>