<svg width="293" height="318" fill="none" xmlns="http://www.w3.org/2000/svg"><rect width="293" height="318" rx="30" fill="#FFDBE1"/><path d="M288.422 203.719v-94.407c0-3.953-1.447-7.744-4.023-10.54-2.576-2.795-6.069-4.366-9.711-4.366H100.719c-3.643 0-7.136 1.57-9.712 4.366-2.576 2.796-4.023 6.587-4.023 10.54v94.407h201.438zm-100.719-14.907h-9.156c-1.214 0-2.379-.523-3.237-1.455-.859-.932-1.341-2.195-1.341-3.513s.482-2.582 1.341-3.514c.858-.932 2.023-1.455 3.237-1.455h9.156c1.214 0 2.379.523 3.237 1.455.859.932 1.341 2.196 1.341 3.514 0 1.318-.482 2.581-1.341 3.513-.858.932-2.023 1.455-3.237 1.455zM151.078 159c-1.214 0-2.379-.523-3.237-1.455-.859-.932-1.341-2.196-1.341-3.514 0-1.318.482-2.581 1.341-3.513.858-.932 2.023-1.456 3.237-1.456h50.36c1.214 0 2.378.524 3.237 1.456.858.932 1.341 2.195 1.341 3.513s-.483 2.582-1.341 3.514c-.859.932-2.023 1.455-3.237 1.455h-50.36zm77.828 29.812h-22.89c-1.215 0-2.379-.523-3.238-1.455-.858-.932-1.34-2.195-1.34-3.513s.482-2.582 1.34-3.514c.859-.932 2.023-1.455 3.238-1.455h22.89c1.214 0 2.379.523 3.237 1.455.859.932 1.341 2.196 1.341 3.514 0 1.318-.482 2.581-1.341 3.513-.858.932-2.023 1.455-3.237 1.455zm27.469 0h-9.156c-1.214 0-2.379-.523-3.237-1.455-.859-.932-1.341-2.195-1.341-3.513s.482-2.582 1.341-3.514c.858-.932 2.023-1.455 3.237-1.455h9.156c1.214 0 2.379.523 3.237 1.455.859.932 1.341 2.196 1.341 3.514 0 1.318-.482 2.581-1.341 3.513-.858.932-2.023 1.455-3.237 1.455zm0-29.812h-9.156c-1.214 0-2.379-.523-3.237-1.455-.859-.932-1.341-2.196-1.341-3.514 0-1.318.482-2.581 1.341-3.513.858-.932 2.023-1.456 3.237-1.456h9.156c1.214 0 2.379.524 3.237 1.456.859.932 1.341 2.195 1.341 3.513s-.482 2.582-1.341 3.514c-.858.932-2.023 1.455-3.237 1.455zm-22.891-39.75h22.891c1.214 0 2.379.523 3.237 1.455.859.932 1.341 2.196 1.341 3.514 0 1.318-.482 2.581-1.341 3.513-.858.932-2.023 1.456-3.237 1.456h-22.891c-1.214 0-2.378-.524-3.237-1.456-.858-.932-1.341-2.195-1.341-3.513s.483-2.582 1.341-3.514c.859-.932 2.023-1.455 3.237-1.455zm0 34.781c0 1.318-.482 2.582-1.341 3.514-.858.932-2.023 1.455-3.237 1.455h-9.156c-1.214 0-2.379-.523-3.237-1.455-.859-.932-1.341-2.196-1.341-3.514 0-1.318.482-2.581 1.341-3.513.858-.932 2.023-1.456 3.237-1.456h9.156c1.214 0 2.379.524 3.237 1.456.859.932 1.341 2.195 1.341 3.513zm-41.203-34.781h22.891c1.214 0 2.379.523 3.237 1.455.859.932 1.341 2.196 1.341 3.514 0 1.318-.482 2.581-1.341 3.513-.858.932-2.023 1.456-3.237 1.456h-22.891c-1.214 0-2.378-.524-3.237-1.456-.859-.932-1.341-2.195-1.341-3.513s.482-2.582 1.341-3.514c.859-.932 2.023-1.455 3.237-1.455zm-27.469 0h9.157c1.214 0 2.378.523 3.237 1.455s1.341 2.196 1.341 3.514c0 1.318-.482 2.581-1.341 3.513-.859.932-2.023 1.456-3.237 1.456h-9.157c-1.214 0-2.378-.524-3.237-1.456-.858-.932-1.341-2.195-1.341-3.513s.483-2.582 1.341-3.514c.859-.932 2.023-1.455 3.237-1.455zm-41.203 0H146.5c1.214 0 2.379.523 3.237 1.455.859.932 1.341 2.196 1.341 3.514 0 1.318-.482 2.581-1.341 3.513-.858.932-2.023 1.456-3.237 1.456h-22.891c-1.214 0-2.378-.524-3.237-1.456-.858-.932-1.341-2.195-1.341-3.513s.483-2.582 1.341-3.514c.859-.932 2.023-1.455 3.237-1.455zm-4.578 29.812h13.735c1.214 0 2.378.524 3.237 1.456.858.932 1.341 2.195 1.341 3.513s-.483 2.582-1.341 3.514c-.859.932-2.023 1.455-3.237 1.455h-13.735c-1.214 0-2.378-.523-3.237-1.455s-1.341-2.196-1.341-3.514c0-1.318.482-2.581 1.341-3.513.859-.932 2.023-1.456 3.237-1.456zm0 29.813h41.203c1.215 0 2.379.523 3.238 1.455.858.932 1.34 2.196 1.34 3.514 0 1.318-.482 2.581-1.34 3.513-.859.932-2.023 1.455-3.238 1.455h-41.203c-1.214 0-2.378-.523-3.237-1.455s-1.341-2.195-1.341-3.513.482-2.582 1.341-3.514c.859-.932 2.023-1.455 3.237-1.455zm109.875 129.187c0 1.318-.482 2.582-1.341 3.514-.858.932-2.023 1.455-3.237 1.455h-73.25c-1.214 0-2.379-.523-3.237-1.455-.859-.932-1.341-2.196-1.341-3.514 0-1.317.482-2.581 1.341-3.513.858-.932 2.023-1.455 3.237-1.455h5.585l9.157-39.75h43.767l9.156 39.75h5.585c1.214 0 2.379.523 3.237 1.455.859.932 1.341 2.196 1.341 3.513zm59.516-94.406V238.5c0 3.953-1.447 7.745-4.023 10.54-2.576 2.796-6.069 4.366-9.711 4.366H100.719c-3.643 0-7.136-1.57-9.712-4.366-2.576-2.795-4.023-6.587-4.023-10.54v-24.844h201.438z" fill="#FAACCA"/><path d="M219.75 4.969H18.312c-3.642 0-7.136 1.57-9.711 4.366-2.576 2.795-4.023 6.587-4.023 10.54v188.813c0 3.953 1.447 7.744 4.023 10.54 2.575 2.795 6.069 4.366 9.711 4.366H219.75c3.643 0 7.136-1.571 9.712-4.366 2.575-2.796 4.022-6.587 4.022-10.54V19.875c0-3.953-1.447-7.745-4.022-10.54-2.576-2.796-6.069-4.366-9.712-4.366zM18.312 14.906H219.75c1.214 0 2.379.524 3.237 1.456.859.931 1.341 2.195 1.341 3.513v14.906H13.734V19.875c0-1.318.483-2.582 1.341-3.513.859-.932 2.023-1.456 3.238-1.456zm201.438 198.75H18.312c-1.214 0-2.378-.523-3.237-1.455-.858-.932-1.34-2.196-1.34-3.513V44.718h210.593v163.97c0 1.317-.482 2.581-1.341 3.513-.858.932-2.023 1.455-3.237 1.455zM81.445 87.5l-29.85 41.688 29.85 41.687a5.31 5.31 0 01.731 3.574c-.184 1.249-.8 2.375-1.722 3.148-.923.773-2.082 1.135-3.242 1.012-1.16-.122-2.233-.72-3-1.672l-32.048-44.719a5.245 5.245 0 01-.95-3.03c0-1.097.334-2.163.95-3.031l32.047-44.72a4.777 4.777 0 011.331-1.402 4.367 4.367 0 011.735-.715 4.228 4.228 0 011.854.091 4.44 4.44 0 011.668.882 4.88 4.88 0 011.208 1.529c.302.593.49 1.248.55 1.923a5.371 5.371 0 01-.198 2.002 5.093 5.093 0 01-.914 1.753zm114.453 38.657c.616.868.95 1.934.95 3.031a5.246 5.246 0 01-.95 3.03c-33.283 45.266-31.543 46.657-35.664 46.657a4.35 4.35 0 01-2.792-1.043c-.958-.806-1.582-1.99-1.736-3.294a5.277 5.277 0 01.912-3.663l29.849-41.687L156.618 87.5a5.31 5.31 0 01-.732-3.574c.184-1.249.801-2.375 1.723-3.148.922-.773 2.082-1.135 3.241-1.012 1.16.122 2.233.72 3.001 1.672l32.047 44.719zm-58.554-40.098l-27.469 89.437c-.389 1.252-1.219 2.285-2.31 2.872a4.264 4.264 0 01-3.504.259c-1.154-.422-2.106-1.324-2.646-2.507a5.368 5.368 0 01-.238-3.804l27.468-89.437c.193-.62.496-1.193.892-1.686a4.653 4.653 0 011.418-1.186 4.257 4.257 0 013.505-.258 4.513 4.513 0 011.552.967c.454.43.826.953 1.094 1.54a5.382 5.382 0 01.238 3.803z" fill="#000"/></svg>